<svg xmlns="http://www.w3.org/2000/svg" xmlns:svgjs="http://svgjs.com/svgjs" xmlns:xlink="http://www.w3.org/1999/xlink" width="288" height="288"><svg xmlns="http://www.w3.org/2000/svg" width="288" height="288" enable-background="new 0 0 32 32" viewBox="0 0 32 32"><circle cx="7.5" cy="4.5" r=".5" fill="#ffd42a" class="color263238 svgShape"/><circle cx="5.5" cy="4.5" r=".5" fill="#ffd42a" class="color263238 svgShape"/><circle cx="3.5" cy="4.5" r=".5" fill="#ffd42a" class="color263238 svgShape"/><path fill="#ffd42a" d="M30.5,7h-29C1.224,7,1,6.776,1,6.5S1.224,6,1.5,6h29C30.776,6,31,6.224,31,6.5S30.776,7,30.5,7z" class="color263238 svgShape"/><path fill="#ffd42a" d="M29.5,28h-2c-0.276,0-0.5-0.224-0.5-0.5s0.224-0.5,0.5-0.5h2c0.276,0,0.5-0.225,0.5-0.5v-23
			C30,3.225,29.776,3,29.5,3h-27C2.224,3,2,3.225,2,3.5v23C2,26.775,2.224,27,2.5,27h2C4.776,27,5,27.224,5,27.5S4.776,28,4.5,28h-2
			C1.673,28,1,27.327,1,26.5v-23C1,2.673,1.673,2,2.5,2h27C30.327,2,31,2.673,31,3.5v23C31,27.327,30.327,28,29.5,28z" class="color263238 svgShape"/><path fill="#ffd42a" d="M24.5,29h-17c-0.574,0-1.041-0.23-1.28-0.632C5.981,27.967,6,27.447,6.273,26.942l6.6-12.209
					c0.131-0.243,0.434-0.334,0.678-0.202c0.243,0.131,0.333,0.435,0.202,0.677l-6.6,12.21c-0.098,0.182-0.126,0.35-0.074,0.438
					S7.293,28,7.5,28h17c0.207,0,0.368-0.055,0.42-0.144s0.024-0.257-0.074-0.438l-8.573-15.862
					c-0.224-0.412-0.323-0.413-0.547,0.001l-0.623,1.15c-0.132,0.242-0.436,0.333-0.678,0.201c-0.243-0.131-0.333-0.435-0.202-0.678
					l0.623-1.15c0.555-1.023,1.752-1.023,2.307,0l8.573,15.862c0.273,0.504,0.292,1.023,0.053,1.425C25.541,28.77,25.074,29,24.5,29
					z" class="color263238 svgShape"/><path fill="#ffd42a" d="M16 23L16 23c-.225 0-.421-.149-.481-.365C15.477 22.485 14.5 18.969 14.5 17.5c0-.827.673-1.5 1.5-1.5s1.5.673 1.5 1.5c0 1.511-.977 4.988-1.019 5.136C16.42 22.852 16.224 23 16 23zM16 17c-.276 0-.5.225-.5.5 0 .68.253 1.923.502 2.981.248-1.05.498-2.284.498-2.981C16.5 17.225 16.276 17 16 17zM16 27c-.827 0-1.5-.673-1.5-1.5S15.173 24 16 24s1.5.673 1.5 1.5S16.827 27 16 27zM16 25c-.276 0-.5.225-.5.5S15.724 26 16 26s.5-.225.5-.5S16.276 25 16 25z" class="color263238 svgShape"/></svg></svg>